<svg width="23" height="22" viewBox="0 0 23 22" fill="none" xmlns="http://www.w3.org/2000/svg">
<g clip-path="url(#clip0_1_5164)">
<path d="M22.9813 11.3223C22.9813 5.42012 17.9792 0.635498 11.8088 0.635498C5.63834 0.635498 0.63623 5.42012 0.63623 11.3223C0.63623 16.6563 4.72184 21.0775 10.0631 21.8792V14.4114H7.22628V11.3223H10.0631V8.96784C10.0631 6.28947 11.7311 4.81002 14.2831 4.81002C15.5051 4.81002 16.784 5.01874 16.784 5.01874V7.64869H15.3752C13.9874 7.64869 13.5545 8.47253 13.5545 9.3185V11.3223H16.6531L16.1578 14.4114H13.5545V21.8792C18.8957 21.0775 22.9813 16.6563 22.9813 11.3223Z" fill="#4977E5"/>
</g>
<defs>
<clipPath id="clip0_1_5164">
<rect width="22.3451" height="21.3735" fill="white" transform="translate(0.63623 0.635498)"/>
</clipPath>
</defs>
</svg>
