<svg width="24" height="22" viewBox="0 0 24 22" fill="none" xmlns="http://www.w3.org/2000/svg">
<g clip-path="url(#clip0_1_5161)">
<path fill-rule="evenodd" clip-rule="evenodd" d="M16.645 6.46665C15.4914 5.41427 13.9519 4.84096 12.359 4.86452C9.4443 4.86452 6.96883 6.74544 6.08618 9.2782C5.61818 10.6055 5.61818 12.0427 6.08618 13.37H6.09027C6.97702 15.8988 9.4484 17.7798 12.3632 17.7798C13.8677 17.7798 15.1594 17.4116 16.1606 16.7615V16.7588C17.3388 16.0127 18.1434 14.8386 18.3938 13.5114H12.3591V9.39608H22.8973C23.0287 10.1108 23.0903 10.8411 23.0903 11.5676C23.0903 14.818 21.8758 17.5661 19.7628 19.4274L19.765 19.429C17.9135 21.0626 15.3723 22.0089 12.359 22.0089C8.13471 22.0089 4.27163 19.7314 2.37499 16.1227C0.790363 13.103 0.790367 9.54528 2.375 6.52558C4.27164 2.91293 8.13471 0.635364 12.359 0.635364C15.1342 0.603949 17.815 1.60136 19.8348 3.41553L16.645 6.46665Z" fill="#4977E5"/>
</g>
<defs>
<clipPath id="clip0_1_5161">
<rect width="22.3451" height="21.3735" fill="white" transform="translate(0.962891 0.635498)"/>
</clipPath>
</defs>
</svg>
