<svg width="22" height="22" viewBox="0 0 22 22" fill="none" xmlns="http://www.w3.org/2000/svg">
<g clip-path="url(#clip0_1_5162)">
<path d="M11.134 2.55983C13.9894 2.55983 14.3275 2.57235 15.4505 2.62245C16.4941 2.66837 17.0577 2.8437 17.4334 2.98981C17.9302 3.18183 18.2892 3.41561 18.6607 3.78714C19.0364 4.16285 19.266 4.51768 19.458 5.01445C19.6041 5.39015 19.7795 5.95789 19.8254 6.99734C19.8755 8.12446 19.888 8.4626 19.888 11.3138C19.888 14.1692 19.8755 14.5073 19.8254 15.6303C19.7795 16.6739 19.6041 17.2374 19.458 17.6131C19.266 18.1099 19.0322 18.4689 18.6607 18.8405C18.285 19.2162 17.9302 19.4458 17.4334 19.6378C17.0577 19.7839 16.4899 19.9592 15.4505 20.0051C14.3234 20.0552 13.9852 20.0678 11.134 20.0678C8.27866 20.0678 7.94053 20.0552 6.81758 20.0051C5.77395 19.9592 5.21039 19.7839 4.83469 19.6378C4.33792 19.4458 3.97891 19.212 3.60738 18.8405C3.23167 18.4648 3.00207 18.1099 2.81004 17.6131C2.66394 17.2374 2.48861 16.6697 2.44269 15.6303C2.39259 14.5031 2.38007 14.165 2.38007 11.3138C2.38007 8.45843 2.39259 8.12029 2.44269 6.99734C2.48861 5.95371 2.66394 5.39015 2.81004 5.01445C3.00207 4.51768 3.23584 4.15867 3.60738 3.78714C3.98308 3.41143 4.33792 3.18183 4.83469 2.98981C5.21039 2.8437 5.77813 2.66837 6.81758 2.62245C7.94053 2.57235 8.27866 2.55983 11.134 2.55983ZM11.134 0.635376C8.23275 0.635376 7.86956 0.6479 6.72992 0.697994C5.59445 0.748088 4.81381 0.931767 4.13754 1.19476C3.43205 1.47028 2.83509 1.83346 2.24231 2.43042C1.64535 3.0232 1.28217 3.62016 1.00665 4.32148C0.743656 5.00192 0.559978 5.77838 0.509883 6.91385C0.459789 8.05767 0.447266 8.42086 0.447266 11.3221C0.447266 14.2234 0.459789 14.5866 0.509883 15.7263C0.559978 16.8617 0.743656 17.6424 1.00665 18.3186C1.28217 19.0241 1.64535 19.6211 2.24231 20.2139C2.83509 20.8067 3.43205 21.174 4.13337 21.4454C4.81381 21.7084 5.59027 21.892 6.72574 21.9421C7.86539 21.9922 8.22857 22.0047 11.1299 22.0047C14.0312 22.0047 14.3943 21.9922 15.534 21.9421C16.6694 21.892 17.4501 21.7084 18.1264 21.4454C18.8277 21.174 19.4246 20.8067 20.0174 20.2139C20.6102 19.6211 20.9776 19.0241 21.2489 18.3228C21.5119 17.6424 21.6956 16.8659 21.7457 15.7304C21.7958 14.5908 21.8083 14.2276 21.8083 11.3263C21.8083 8.42503 21.7958 8.06185 21.7457 6.9222C21.6956 5.78673 21.5119 5.0061 21.2489 4.32983C20.9859 3.62016 20.6227 3.0232 20.0258 2.43042C19.433 1.83764 18.836 1.47028 18.1347 1.19894C17.4543 0.935941 16.6778 0.752263 15.5423 0.702168C14.3985 0.6479 14.0353 0.635376 11.134 0.635376Z" fill="#4977E5"/>
<path d="M11.1345 5.83252C8.10381 5.83252 5.64502 8.29131 5.64502 11.322C5.64502 14.3527 8.10381 16.8115 11.1345 16.8115C14.1652 16.8115 16.624 14.3527 16.624 11.322C16.624 8.29131 14.1652 5.83252 11.1345 5.83252ZM11.1345 14.8829C9.16831 14.8829 7.57365 13.2882 7.57365 11.322C7.57365 9.35581 9.16831 7.76115 11.1345 7.76115C13.1007 7.76115 14.6954 9.35581 14.6954 11.322C14.6954 13.2882 13.1007 14.8829 11.1345 14.8829Z" fill="#4977E5"/>
<path d="M18.1227 5.61544C18.1227 6.32511 17.5466 6.89702 16.8411 6.89702C16.1315 6.89702 15.5596 6.32094 15.5596 5.61544C15.5596 4.90577 16.1357 4.33386 16.8411 4.33386C17.5466 4.33386 18.1227 4.90995 18.1227 5.61544Z" fill="#4977E5"/>
</g>
<defs>
<clipPath id="clip0_1_5162">
<rect width="21.3735" height="21.3735" fill="white" transform="translate(0.447266 0.635376)"/>
</clipPath>
</defs>
</svg>
