<svg width="23" height="22" viewBox="0 0 23 22" fill="none" xmlns="http://www.w3.org/2000/svg">
<g clip-path="url(#clip0_1_5163)">
<path d="M7.07055 20.0053C15.5006 20.0053 20.1127 13.3232 20.1127 7.53018C20.1127 7.34233 20.1084 7.1503 20.0996 6.96244C20.9968 6.34181 21.7711 5.57307 22.3861 4.69234C21.5505 5.04794 20.6633 5.28019 19.7549 5.38114C20.7114 4.8327 21.4276 3.97114 21.7707 2.95616C20.8709 3.46626 19.8868 3.8261 18.8606 4.02024C18.1692 3.31754 17.2551 2.85227 16.2595 2.69637C15.2639 2.54046 14.2424 2.7026 13.3528 3.15772C12.4633 3.61284 11.7552 4.33559 11.3382 5.21422C10.9211 6.09286 10.8183 7.07844 11.0455 8.0186C9.22343 7.93114 7.4409 7.47839 5.81347 6.6897C4.18605 5.90101 2.75007 4.79399 1.59862 3.4404C1.0134 4.40553 0.834318 5.54759 1.09778 6.63448C1.36124 7.72136 2.04747 8.67151 3.01701 9.29183C2.28914 9.26972 1.57722 9.08227 0.940055 8.74496V8.79923C0.939403 9.81206 1.30547 10.7939 1.97601 11.5777C2.64656 12.3616 3.58022 12.8991 4.61826 13.099C3.94401 13.2754 3.23634 13.3012 2.55003 13.1741C2.84295 14.0452 3.41286 14.807 4.18023 15.3533C4.94759 15.8996 5.87412 16.2031 6.83051 16.2215C5.20684 17.4415 3.20114 18.1032 1.13645 18.1001C0.770291 18.0995 0.404494 18.0781 0.0410156 18.0358C2.13852 19.3229 4.57849 20.0066 7.07055 20.0053Z" fill="#4977E5"/>
</g>
<defs>
<clipPath id="clip0_1_5163">
<rect width="22.3451" height="21.3735" fill="white" transform="translate(0.0410156 0.635498)"/>
</clipPath>
</defs>
</svg>
