<svg width="2639" height="648" viewBox="0 0 2639 648" fill="none" xmlns="http://www.w3.org/2000/svg">
<path d="M84.6 639H4.55976e-06V225C4.55976e-06 154.2 18.9 99 56.7 59.4C95.1 19.8 145.8 -3.43323e-05 208.8 -3.43323e-05C276 -3.43323e-05 327.9 19.2 364.5 57.6C401.7 96 420.3 144.9 420.3 204.3C420.3 241.5 413.4 273.9 399.6 301.5C386.4 329.1 368.4 350.4 345.6 365.4C322.8 380.4 298.5 391.5 272.7 398.7C246.9 405.9 219.9 409.5 191.7 409.5H124.2V330.3H201.6C241.8 330.3 273.3 318.3 296.1 294.3C319.5 269.7 331.2 239.1 331.2 202.5C331.2 166.5 320.4 137.1 298.8 114.3C277.8 90.9 247.5 79.2 207.9 79.2C169.5 79.2 139.2 92.4 117 118.8C95.4 144.6 84.6 178.8 84.6 221.4V639ZM717.645 198C819.645 202.2 870.645 244.5 870.645 324.9C870.645 425.1 804.945 475.2 673.545 475.2H636.645V405.9H679.845C720.045 405.9 747.945 399.9 763.545 387.9C779.145 375.3 786.945 354.6 786.945 325.8C786.945 307.2 780.045 293.4 766.245 284.4C752.445 274.8 734.745 270 713.145 270C670.545 270 636.945 285 612.345 315C588.345 345 576.345 381 576.345 423C576.345 467.4 589.245 503.4 615.045 531C641.445 558.6 675.645 572.4 717.645 572.4C755.445 572.4 786.345 563.1 810.345 544.5L864.345 597.6C822.945 631.2 774.045 648 717.645 648C649.245 648 594.645 627.9 553.845 587.7C513.045 547.5 492.645 495.6 492.645 432C492.645 361.2 512.745 303.9 552.945 260.1C593.145 216.3 648.045 195.6 717.645 198ZM960.539 8.99996H1041.54V423C1041.54 470.4 1053.54 507.3 1077.54 533.7C1102.14 559.5 1135.74 572.4 1178.34 572.4C1222.74 572.4 1257.54 559.8 1282.74 534.6C1307.94 508.8 1320.54 471.6 1320.54 423C1320.54 376.8 1306.74 340.5 1279.14 314.1C1252.14 287.1 1216.44 273.6 1172.04 273.6C1134.24 273.6 1101.54 284.4 1073.94 306V225C1106.94 207 1142.64 198 1181.04 198C1244.64 198 1297.14 218.7 1338.54 260.1C1380.54 300.9 1401.54 355.2 1401.54 423C1401.54 494.4 1379.64 549.9 1335.84 589.5C1292.64 628.5 1238.04 648 1172.04 648C1109.04 648 1058.04 627.6 1019.04 586.8C980.039 546 960.539 491.4 960.539 423V8.99996ZM1495.79 8.99996H1576.79V423C1576.79 470.4 1588.79 507.3 1612.79 533.7C1637.39 559.5 1670.99 572.4 1713.59 572.4C1757.99 572.4 1792.79 559.8 1817.99 534.6C1843.19 508.8 1855.79 471.6 1855.79 423C1855.79 376.8 1841.99 340.5 1814.39 314.1C1787.39 287.1 1751.69 273.6 1707.29 273.6C1669.49 273.6 1636.79 284.4 1609.19 306V225C1642.19 207 1677.89 198 1716.29 198C1779.89 198 1832.39 218.7 1873.79 260.1C1915.79 300.9 1936.79 355.2 1936.79 423C1936.79 494.4 1914.89 549.9 1871.09 589.5C1827.89 628.5 1773.29 648 1707.29 648C1644.29 648 1593.29 627.6 1554.29 586.8C1515.29 546 1495.79 491.4 1495.79 423V8.99996ZM2031.05 468V8.99996H2112.05V468C2112.05 489.6 2114.45 507.3 2119.25 521.1C2124.65 534.3 2132.75 543.9 2143.55 549.9C2154.35 555.3 2164.85 558.9 2175.05 560.7C2185.25 562.5 2198.75 563.4 2215.55 563.4V639C2148.35 639 2100.65 626.1 2072.45 600.3C2044.85 574.5 2031.05 530.4 2031.05 468ZM2485.13 198C2587.13 202.2 2638.13 244.5 2638.13 324.9C2638.13 425.1 2572.43 475.2 2441.03 475.2H2404.13V405.9H2447.33C2487.53 405.9 2515.43 399.9 2531.03 387.9C2546.63 375.3 2554.43 354.6 2554.43 325.8C2554.43 307.2 2547.53 293.4 2533.73 284.4C2519.93 274.8 2502.23 270 2480.63 270C2438.03 270 2404.43 285 2379.83 315C2355.83 345 2343.83 381 2343.83 423C2343.83 467.4 2356.73 503.4 2382.53 531C2408.93 558.6 2443.13 572.4 2485.13 572.4C2522.93 572.4 2553.83 563.1 2577.83 544.5L2631.83 597.6C2590.43 631.2 2541.53 648 2485.13 648C2416.73 648 2362.13 627.9 2321.33 587.7C2280.53 547.5 2260.13 495.6 2260.13 432C2260.13 361.2 2280.23 303.9 2320.43 260.1C2360.63 216.3 2415.53 195.6 2485.13 198Z" fill="#5485EE"/>
</svg>
