<svg width="16" height="15" viewBox="0 0 16 15" fill="none" xmlns="http://www.w3.org/2000/svg">
<g clip-path="url(#clip0_1_520)">
<path d="M5.86119 0.654053H10.3646C10.8973 0.718618 11.4461 0.718618 11.9626 0.831608C13.3508 1.10601 14.3193 1.91308 14.8035 3.25281C15.0456 3.89847 15.0941 4.5764 15.0941 5.27048C15.0941 6.90076 15.0941 8.53104 15.0941 10.1775C15.0941 10.694 15.0456 11.2266 14.9488 11.727C14.6744 13.099 13.8996 14.0514 12.5921 14.5679C11.9626 14.81 11.3008 14.8746 10.6229 14.8907C9.12175 14.8907 7.6206 14.923 6.11945 14.9069C5.37695 14.9069 4.63445 14.9069 3.90808 14.7293C2.72976 14.4388 1.85813 13.777 1.32547 12.6632C1.01878 11.9853 0.921931 11.2428 0.921931 10.5003C0.889648 8.96686 0.889648 7.41728 0.889648 5.88385C0.889648 5.2382 0.938073 4.5764 1.03492 3.94689C1.18019 2.94613 1.66443 2.12292 2.4715 1.50955C3.18172 0.97688 3.98879 0.767042 4.84428 0.718618C5.18325 0.702477 5.52222 0.686335 5.87733 0.654053H5.86119ZM8.00799 13.6479C8.37924 13.6317 8.76664 13.6479 9.13789 13.6156C9.94496 13.5833 10.752 13.5994 11.5591 13.5026C12.6083 13.3734 13.3346 12.7762 13.6575 11.7432C13.8027 11.2751 13.835 10.7747 13.835 10.2904C13.835 9.03142 13.8673 7.77239 13.8512 6.49723C13.8512 5.75472 13.8189 4.99608 13.7382 4.25358C13.609 3.10754 12.8827 2.33275 11.7528 2.10678C11.2685 2.00993 10.752 1.97764 10.2516 1.97764C9.00876 1.9615 7.76587 1.9615 6.52299 1.97764C5.81277 1.97764 5.0864 1.97764 4.39233 2.09063C3.31085 2.28433 2.56835 2.96227 2.34237 4.04374C2.24552 4.51184 2.21324 4.99608 2.21324 5.46418C2.18096 6.61022 2.18096 7.75625 2.1971 8.90229C2.1971 9.70936 2.22938 10.5003 2.31009 11.3074C2.37465 12.0499 2.71362 12.6632 3.34314 13.099C3.82738 13.438 4.39233 13.5671 4.95727 13.5833C5.97418 13.6156 7.00723 13.6317 8.02413 13.664L8.00799 13.6479Z" fill="#4977E5"/>
<path d="M4.34399 7.7886C4.34399 5.77093 5.99041 4.12451 8.00808 4.12451C10.0258 4.12451 11.656 5.75479 11.6722 7.77246C11.6722 9.79013 10.0419 11.4365 8.02423 11.4527C6.00655 11.4527 4.36014 9.82241 4.36014 7.7886H4.34399ZM7.99194 10.1614C9.29939 10.1614 10.3647 9.11219 10.3647 7.80474C10.3647 6.49729 9.31553 5.43196 8.00808 5.41582C6.68449 5.41582 5.61916 6.46501 5.61916 7.7886C5.61916 9.09605 6.66835 10.1614 7.99194 10.1614Z" fill="#4977E5"/>
<path d="M11.8335 3.12358C12.3178 3.12358 12.6729 3.52712 12.6729 3.99522C12.6729 4.46332 12.2694 4.83457 11.8013 4.81843C11.3332 4.81843 10.9619 4.41489 10.9619 3.93065C10.9619 3.46255 11.3654 3.0913 11.8335 3.10744V3.12358Z" fill="#4977E5"/>
</g>
<defs>
<clipPath id="clip0_1_520">
<rect width="14.2205" height="14.2528" fill="white" transform="translate(0.889648 0.654053)"/>
</clipPath>
</defs>
</svg>
