<svg width="9" height="15" viewBox="0 0 9 15" fill="none" xmlns="http://www.w3.org/2000/svg">
<g clip-path="url(#clip0_1_518)">
<path d="M2.93957 8.32115C2.93957 8.32115 2.7943 8.32115 2.74588 8.32115C2.26164 8.32115 1.7774 8.32115 1.29315 8.32115C1.00261 8.32115 0.905762 8.24044 0.905762 7.94989C0.905762 7.27196 0.905762 6.59402 0.905762 5.93222C0.905762 5.64168 1.00261 5.56097 1.29315 5.56097C1.7774 5.56097 2.26164 5.56097 2.74588 5.56097C2.81044 5.56097 2.85887 5.56097 2.93957 5.56097C2.93957 5.48027 2.93957 5.4157 2.93957 5.35113C2.93957 4.72162 2.93957 4.09211 2.988 3.46259C3.11713 1.8646 4.32773 0.734703 5.90959 0.653996C6.57138 0.621714 7.23318 0.653996 7.89497 0.653996C8.12095 0.653996 8.2178 0.750845 8.2178 0.960682C8.2178 1.62248 8.2178 2.28427 8.2178 2.92993C8.2178 3.15591 8.12095 3.25276 7.89497 3.25276C7.44302 3.25276 7.0072 3.25276 6.55524 3.2689C6.03872 3.2689 5.82888 3.47874 5.81274 3.99526C5.81274 4.4795 5.81274 4.97988 5.81274 5.49641C5.8773 5.49641 5.94187 5.49641 5.99029 5.49641C6.57138 5.49641 7.13633 5.49641 7.71742 5.49641C8.07253 5.49641 8.15323 5.57711 8.15323 5.93222C8.15323 6.57788 8.15323 7.23967 8.15323 7.88533C8.15323 8.19201 8.07253 8.27272 7.76584 8.27272C7.18475 8.27272 6.58752 8.27272 6.00643 8.27272C5.94187 8.27272 5.89344 8.27272 5.7966 8.27272V8.4987C5.7966 10.242 5.7966 11.9691 5.7966 13.7124C5.7966 14.1643 5.73203 14.2127 5.29621 14.2127C4.68284 14.2127 4.05333 14.2127 3.43996 14.2127C3.00414 14.2127 2.93957 14.1482 2.93957 13.7285C2.93957 11.9852 2.93957 10.2581 2.93957 8.51484V8.305V8.32115Z" fill="#4977E5"/>
</g>
<defs>
<clipPath id="clip0_1_518">
<rect width="7.32818" height="13.5749" fill="white" transform="translate(0.889648 0.654053)"/>
</clipPath>
</defs>
</svg>
