<svg width="15" height="12" viewBox="0 0 15 12" fill="none" xmlns="http://www.w3.org/2000/svg">
<g clip-path="url(#clip0_1_516)">
<path d="M0.889648 10.4841C2.37465 10.5809 3.71439 10.2258 4.94113 9.30578C3.66596 9.19279 2.82661 8.54713 2.34237 7.35267H3.53683V7.28811C2.92346 7.12669 2.40694 6.80387 2.0034 6.30348C1.59987 5.8031 1.40617 5.22201 1.39003 4.54407C1.77742 4.72163 2.16482 4.8669 2.60063 4.8669C1.42231 3.85 1.05106 2.63939 1.77742 1.15439C3.29471 2.92994 5.16711 3.91456 7.45919 4.05983C7.45919 3.75315 7.44304 3.4626 7.45919 3.1882C7.58832 1.73548 8.81506 0.621722 10.2839 0.654005C11.0264 0.654005 11.6559 0.928408 12.1886 1.44493C12.2532 1.5095 12.3177 1.54178 12.4146 1.5095C12.9311 1.38037 13.4315 1.20281 13.8996 0.944549C13.9319 0.928408 13.9642 0.912266 14.0449 0.879984C13.8189 1.52564 13.4476 2.00988 12.915 2.39727C13.0764 2.36499 13.2378 2.33271 13.3992 2.30042C13.5606 2.26814 13.7382 2.21972 13.8996 2.15515C14.061 2.10673 14.2224 2.04216 14.4161 1.9776C14.174 2.36499 13.9157 2.67168 13.609 2.94608C13.4638 3.09135 13.3024 3.22048 13.1409 3.34961C13.0441 3.41418 13.028 3.47874 13.028 3.59173C13.1248 6.65859 11.3331 9.70931 8.57294 10.9522C6.00646 12.1144 3.47227 11.9691 1.01878 10.5648C0.986497 10.5487 0.954214 10.5164 0.90579 10.5002L0.889648 10.4841Z" fill="#4977E5"/>
</g>
<defs>
<clipPath id="clip0_1_516">
<rect width="13.5103" height="11.0891" fill="white" transform="translate(0.889648 0.654053)"/>
</clipPath>
</defs>
</svg>
