<svg width="21" height="15" viewBox="0 0 21 15" fill="none" xmlns="http://www.w3.org/2000/svg">
<path d="M14.5494 0.518066C14.3223 0.518066 14.1046 0.608252 13.9441 0.768783C13.7835 0.929314 13.6934 1.14704 13.6934 1.37407C13.6934 1.60109 13.7835 1.81882 13.9441 1.97935C14.1046 2.13988 14.3223 2.23007 14.5494 2.23007H17.9724C18.1994 2.23007 18.4171 2.13988 18.5776 1.97935C18.7382 1.81882 18.8284 1.60109 18.8284 1.37407C18.8284 1.14704 18.7382 0.929314 18.5776 0.768783C18.4171 0.608252 18.1994 0.518066 17.9724 0.518066H14.5494Z" fill="white"/>
<path fill-rule="evenodd" clip-rule="evenodd" d="M11.9824 8.21992C11.9824 7.08506 12.4332 5.99668 13.2357 5.19421C14.0382 4.39174 15.1266 3.94092 16.2614 3.94092C17.3963 3.94092 18.4847 4.39174 19.2871 5.19421C20.0896 5.99668 20.5404 7.08506 20.5404 8.21992V9.07592C20.5404 9.30294 20.4502 9.52067 20.2897 9.6812C20.1292 9.84173 19.9114 9.93192 19.6844 9.93192H13.6944C13.6946 10.4132 13.83 10.8847 14.0851 11.2927C14.3403 11.7007 14.705 12.0288 15.1376 12.2396C15.5703 12.4504 16.0534 12.5354 16.532 12.4849C17.0106 12.4344 17.4653 12.2504 17.8444 11.9539C18.0646 11.7659 18.3412 11.6569 18.6304 11.6439C19.3634 11.6439 19.8304 12.4009 19.3204 12.9259C18.7257 13.5339 17.9633 13.9509 17.1305 14.1237C16.2978 14.2964 15.4324 14.2171 14.6449 13.8958C13.8574 13.5745 13.1836 13.0258 12.7093 12.3198C12.2351 11.6138 11.982 10.7824 11.9824 9.93192V8.21992ZM16.2614 5.65292C15.5806 5.65292 14.9277 5.92337 14.4463 6.40477C13.9649 6.88618 13.6944 7.53911 13.6944 8.21992H18.8294C18.8294 7.88273 18.763 7.54885 18.6339 7.23734C18.5049 6.92583 18.3157 6.6428 18.0772 6.40442C17.8387 6.16604 17.5556 5.97698 17.2441 5.84803C16.9325 5.71909 16.5986 5.65279 16.2614 5.65292Z" fill="white"/>
<path fill-rule="evenodd" clip-rule="evenodd" d="M1.712 2.23007V5.65307H5.991C6.43776 5.64227 6.86258 5.45721 7.17473 5.13742C7.48689 4.81762 7.66163 4.38845 7.66163 3.94157C7.66163 3.49468 7.48689 3.06551 7.17473 2.74572C6.86258 2.42593 6.43776 2.24087 5.991 2.23007H1.712ZM8.387 6.38607C8.87272 5.91016 9.20569 5.30036 9.34344 4.63444C9.48118 3.96852 9.41746 3.27667 9.16041 2.64711C8.90335 2.01755 8.4646 1.47883 7.90012 1.09964C7.33564 0.720452 6.67101 0.517987 5.991 0.518066H1.369C1.00592 0.518066 0.657708 0.6623 0.400971 0.919037C0.144234 1.17577 0 1.52399 0 1.88707L0 12.7441C0 13.1331 0.154558 13.5063 0.429674 13.7814C0.70479 14.0565 1.07793 14.2111 1.467 14.2111H5.991C6.90727 14.2115 7.79947 13.9178 8.53638 13.3732C9.27328 12.8287 9.81599 12.0621 10.0847 11.1861C10.3533 10.3101 10.3338 9.371 10.0289 8.50694C9.72404 7.64288 9.14992 6.89948 8.391 6.38607H8.387ZM1.712 7.36407V12.4991H5.991C6.66317 12.4858 7.30333 12.2095 7.77401 11.7294C8.24468 11.2494 8.50833 10.6039 8.50833 9.93157C8.50833 9.25927 8.24468 8.61378 7.77401 8.13372C7.30333 7.65367 6.66317 7.37733 5.991 7.36407H1.712Z" fill="white"/>
</svg>
