<svg width="17" height="18" viewBox="0 0 17 18" fill="none" xmlns="http://www.w3.org/2000/svg">
<path d="M13.4069 11.022C12.8577 10.9039 12.4232 11.1589 12.0385 11.3816C11.6444 11.6111 10.8953 12.2188 10.4658 12.0633C8.2672 11.1581 6.19938 9.23368 5.30424 7.02622C5.14647 6.58762 5.75139 5.83367 5.97918 5.43503C6.20023 5.04913 6.44995 4.61053 6.33606 4.05718C6.23313 3.55993 4.9018 1.86589 4.43104 1.40265C4.12056 1.09665 3.80249 0.92835 3.47599 0.901146C2.24844 0.848447 0.877462 2.48639 0.637017 2.87824C0.0346296 3.71378 0.0380065 4.82558 0.64714 6.17367C2.11514 9.79469 7.66736 15.2593 11.3019 16.7824C11.9727 17.0961 12.586 17.2533 13.1369 17.2533C13.676 17.2533 14.1561 17.1029 14.5687 16.8046C14.88 16.6252 16.5851 15.1862 16.5403 13.9256C16.5134 13.6043 16.3455 13.283 16.0434 12.9719C15.5836 12.4968 13.9005 11.1258 13.4069 11.022Z" fill="white"/>
</svg>
