<svg width="17" height="17" viewBox="0 0 17 17" fill="none" xmlns="http://www.w3.org/2000/svg">
<g clip-path="url(#clip0_1_275)">
<path d="M8.18774 0.0766602C3.77641 0.0766602 0.187744 3.66533 0.187744 8.07666C0.187744 12.488 3.77641 16.0767 8.18774 16.0767C12.5991 16.0767 16.1877 12.488 16.1877 8.07666C16.1877 3.66533 12.5991 0.0766602 8.18774 0.0766602ZM10.8544 8.74333H8.18774C7.81974 8.74333 7.52108 8.44533 7.52108 8.07666V4.07666C7.52108 3.70799 7.81974 3.40999 8.18774 3.40999C8.55574 3.40999 8.85441 3.70799 8.85441 4.07666V7.40999H10.8544C11.2231 7.40999 11.5211 7.70799 11.5211 8.07666C11.5211 8.44533 11.2231 8.74333 10.8544 8.74333Z" fill="white"/>
</g>
<defs>
<clipPath id="clip0_1_275">
<rect width="16" height="16" fill="white" transform="translate(0.187744 0.0766602)"/>
</clipPath>
</defs>
</svg>
