<svg width="9" height="17" viewBox="0 0 9 17" fill="none" xmlns="http://www.w3.org/2000/svg">
<mask id="mask0_1_254" style="mask-type:luminance" maskUnits="userSpaceOnUse" x="0" y="0" width="9" height="17">
<path d="M8.607 0.518066H0V16.4411H8.607V0.518066Z" fill="white"/>
</mask>
<g mask="url(#mask0_1_254)">
<path d="M8.34598 0.518066C8.43138 0.548696 8.50382 0.607445 8.55143 0.684671C8.59904 0.761898 8.61898 0.853014 8.60798 0.943066C8.60098 1.68907 8.60798 2.43607 8.60798 3.18207C8.60798 3.49207 8.49698 3.59707 8.18398 3.60007C7.66098 3.60507 7.13698 3.61007 6.61398 3.62207C6.50535 3.62765 6.39801 3.64818 6.29498 3.68307C6.13389 3.73167 5.99432 3.83401 5.89951 3.97303C5.80471 4.11204 5.76041 4.27935 5.77398 4.44707C5.75698 5.03707 5.77398 5.62807 5.77398 6.24707H5.93798C6.65298 6.24707 7.36898 6.24707 8.08398 6.24707C8.15626 6.24542 8.22838 6.25452 8.29798 6.27407C8.35169 6.29077 8.39937 6.32273 8.43524 6.36605C8.4711 6.40937 8.4936 6.46219 8.49998 6.51807C8.50547 6.55916 8.50781 6.60062 8.50698 6.64207C8.50698 7.46673 8.50698 8.29073 8.50698 9.11407C8.50878 9.19127 8.49412 9.26797 8.46398 9.33907C8.43178 9.3989 8.38203 9.44745 8.32144 9.47819C8.26084 9.50894 8.19229 9.52041 8.12498 9.51107C7.47198 9.51107 6.81898 9.51107 6.16598 9.51107H5.76598V15.8951C5.76598 15.9311 5.76598 15.9671 5.76598 16.0041C5.76598 16.3281 5.64998 16.4431 5.32698 16.4431H2.83298C2.7709 16.4449 2.70882 16.4396 2.64798 16.4271C2.58377 16.4141 2.52555 16.3806 2.48222 16.3314C2.43888 16.2823 2.41281 16.2204 2.40798 16.1551C2.40197 16.0933 2.39997 16.0311 2.40198 15.9691C2.40198 13.8851 2.40198 11.8014 2.40198 9.71807V9.50907H0.437983C0.38624 9.51051 0.334459 9.5085 0.282983 9.50307C0.212553 9.49599 0.146753 9.46472 0.0967924 9.41458C0.0468315 9.36444 0.0157997 9.29852 0.00898304 9.22807C0.00224832 9.17132 -0.000758127 9.1142 -1.69585e-05 9.05707C-1.69585e-05 8.26907 -1.69585e-05 7.4814 -1.69585e-05 6.69407C-1.69585e-05 6.66307 -1.69585e-05 6.63207 -1.69585e-05 6.60107C-0.00368121 6.5529 0.0031762 6.50452 0.0200796 6.45927C0.036983 6.41402 0.0635277 6.37299 0.0978723 6.33903C0.132217 6.30507 0.173539 6.27898 0.218973 6.26258C0.264407 6.24618 0.312864 6.23987 0.360983 6.24407C0.531983 6.23907 0.702983 6.24407 0.873983 6.24407H2.39998V6.06507C2.39998 5.44807 2.39398 4.83107 2.40898 4.21407C2.41613 3.52719 2.59782 2.85341 2.93698 2.25607C3.33329 1.55966 3.96903 1.03088 4.72598 0.768066C5.04866 0.652152 5.38463 0.577232 5.72598 0.545066C5.76036 0.538959 5.79415 0.529926 5.82698 0.518066L8.34598 0.518066Z" fill="white"/>
</g>
</svg>
