<svg width="18" height="18" viewBox="0 0 18 18" fill="none" xmlns="http://www.w3.org/2000/svg">
<path fill-rule="evenodd" clip-rule="evenodd" d="M11.981 2.23007H5.13402C4.22619 2.23007 3.35553 2.5907 2.7136 3.23264C2.07166 3.87458 1.71102 4.74523 1.71102 5.65307V12.5001C1.71102 12.9496 1.79956 13.3947 1.97158 13.81C2.14361 14.2253 2.39574 14.6026 2.7136 14.9205C3.35553 15.5624 4.22619 15.9231 5.13402 15.9231H11.981C12.4305 15.9231 12.8757 15.8345 13.2909 15.6625C13.7062 15.4905 14.0836 15.2383 14.4015 14.9205C14.7193 14.6026 14.9714 14.2253 15.1435 13.81C15.3155 13.3947 15.404 12.9496 15.404 12.5001V5.65307C15.404 5.20355 15.3155 4.75844 15.1435 4.34314C14.9714 3.92784 14.7193 3.55049 14.4015 3.23264C14.0836 2.91478 13.7062 2.66265 13.2909 2.49063C12.8757 2.3186 12.4305 2.23007 11.981 2.23007ZM5.13402 0.518066C3.77214 0.518066 2.46603 1.05907 1.50303 2.02207C0.540031 2.98507 -0.000976562 4.29118 -0.000976562 5.65307L-0.000976562 12.5001C-0.000976562 13.862 0.540031 15.1681 1.50303 16.1311C2.46603 17.0941 3.77214 17.6351 5.13402 17.6351H11.981C13.3429 17.6351 14.649 17.0941 15.612 16.1311C16.575 15.1681 17.116 13.862 17.116 12.5001V5.65307C17.116 4.29118 16.575 2.98507 15.612 2.02207C14.649 1.05907 13.3429 0.518066 11.981 0.518066L5.13402 0.518066Z" fill="white"/>
<path d="M12.8374 5.65292C13.0067 5.65292 13.1722 5.60271 13.313 5.50866C13.4538 5.4146 13.5635 5.28091 13.6283 5.1245C13.6931 4.96808 13.71 4.79597 13.677 4.62992C13.644 4.46387 13.5624 4.31135 13.4427 4.19163C13.323 4.07192 13.1705 3.9904 13.0044 3.95737C12.8384 3.92434 12.6663 3.94129 12.5099 4.00608C12.3535 4.07087 12.2198 4.18058 12.1257 4.32135C12.0316 4.46212 11.9814 4.62762 11.9814 4.79692C11.9814 5.02394 12.0716 5.24167 12.2322 5.4022C12.3927 5.56273 12.6104 5.65292 12.8374 5.65292Z" fill="white"/>
<path fill-rule="evenodd" clip-rule="evenodd" d="M12.8363 9.07587C12.8363 9.92218 12.5854 10.7495 12.1152 11.4532C11.645 12.1568 10.9767 12.7053 10.1948 13.0292C9.41294 13.353 8.55258 13.4378 7.72253 13.2727C6.89249 13.1075 6.13004 12.7 5.53161 12.1016C4.93318 11.5032 4.52565 10.7407 4.36054 9.91067C4.19544 9.08062 4.28017 8.22026 4.60404 7.43837C4.92791 6.65649 5.47636 5.9882 6.18004 5.51802C6.88372 5.04783 7.71102 4.79688 8.55732 4.79688C9.69218 4.79688 10.7806 5.2477 11.583 6.05017C12.3855 6.85263 12.8363 7.94101 12.8363 9.07587ZM11.1243 9.07587C11.1245 9.58386 10.9741 10.0805 10.692 10.503C10.4099 10.9254 10.0088 11.2547 9.53952 11.4492C9.07023 11.6437 8.55381 11.6946 8.05558 11.5956C7.55734 11.4965 7.09967 11.2519 6.74047 10.8927C6.38127 10.5335 6.13667 10.0759 6.03762 9.57762C5.93856 9.07939 5.9895 8.56296 6.18399 8.09368C6.37848 7.6244 6.70778 7.22334 7.13024 6.94124C7.5527 6.65914 8.04933 6.50868 8.55732 6.50888C8.89451 6.50874 9.22842 6.57504 9.53998 6.70399C9.85154 6.83293 10.1346 7.022 10.3731 7.26038C10.6116 7.49876 10.8008 7.78179 10.9298 8.0933C11.0589 8.4048 11.1243 8.73869 11.1243 9.07587Z" fill="white"/>
</svg>
