<svg width="15" height="18" viewBox="0 0 15 18" fill="none" xmlns="http://www.w3.org/2000/svg">
<path d="M7.56147 0.512956C9.49707 0.521538 11.347 1.29235 12.7002 2.64556C14.062 4.00733 14.8243 5.84873 14.8158 7.75863V7.80146C14.7643 10.3965 13.3083 12.7861 11.4926 14.6531C10.4649 15.7066 9.32578 16.6401 8.08391 17.4281C7.74989 17.7107 7.26171 17.7107 6.92769 17.4281C5.0863 16.229 3.45902 14.7217 2.14007 12.9659C0.983851 11.4414 0.324376 9.60859 0.255859 7.69868C0.272989 3.71614 3.54467 0.504409 7.56147 0.512956ZM7.56147 5.59179C6.28535 5.59179 5.25759 6.61098 5.25759 7.87854C5.25759 9.12983 6.26822 10.1396 7.53578 10.1567H7.56147C8.16956 10.1567 8.75195 9.92548 9.18018 9.50581C9.62554 9.06902 9.87477 8.48748 9.87477 7.87854C9.87477 6.61098 8.8376 5.59179 7.56147 5.59179Z" fill="white"/>
</svg>
