<svg width="18" height="15" viewBox="0 0 18 15" fill="none" xmlns="http://www.w3.org/2000/svg">
<path fill-rule="evenodd" clip-rule="evenodd" d="M12.967 0.289307C14.0633 0.289307 15.118 0.722615 15.8939 1.50012C16.6705 2.27598 17.1047 3.32246 17.1047 4.418V10.8767C17.1047 13.1577 15.2488 15.0054 12.967 15.0054H4.89029C2.60847 15.0054 0.753418 13.1577 0.753418 10.8767V4.418C0.753418 2.137 2.60029 0.289307 4.89029 0.289307H12.967ZM14.2677 5.63617L14.3331 5.57076C14.5285 5.33367 14.5285 4.99029 14.3241 4.7532C14.2105 4.63138 14.0543 4.55698 13.8917 4.54063C13.72 4.53164 13.5565 4.58969 13.433 4.70415L9.74661 7.64737C9.27242 8.04062 8.59303 8.04062 8.11148 7.64737L4.43245 4.70415C4.17819 4.51611 3.82664 4.54063 3.61489 4.76138C3.39415 4.98212 3.36962 5.33367 3.55684 5.57894L3.66394 5.68522L7.38385 8.58757C7.84169 8.9473 8.39681 9.14351 8.9781 9.14351C9.55775 9.14351 10.1227 8.9473 10.5797 8.58757L14.2677 5.63617Z" fill="white"/>
</svg>
