<svg width="18" height="16" viewBox="0 0 18 16" fill="none" xmlns="http://www.w3.org/2000/svg">
<path d="M16.2314 4.36929C16.6594 10.7883 11.9524 15.9233 5.96136 15.9233C3.99187 15.9919 2.03088 15.633 0.213364 14.8713C0.135525 14.8347 0.0729657 14.772 0.0365535 14.6941C0.000141319 14.6161 -0.00782313 14.5279 0.0140437 14.4447C0.0359105 14.3615 0.0862269 14.2886 0.156252 14.2387C0.226278 14.1887 0.311588 14.1649 0.397364 14.1713C2.11636 14.1962 3.78711 13.6028 5.10536 12.4993C0.470364 10.9543 -0.329636 5.22529 0.500364 2.23629C0.526862 2.16178 0.574853 2.09679 0.638273 2.04955C0.701693 2.0023 0.777695 1.97491 0.856675 1.97085C0.935654 1.96678 1.01407 1.98622 1.082 2.0267C1.14994 2.06718 1.20435 2.1269 1.23836 2.19829C2.66336 4.62929 5.36736 5.98729 8.75536 5.67429C8.43995 4.79738 8.45314 3.83584 8.79248 2.96791C9.13183 2.09997 9.77432 1.38448 10.6009 0.954051C11.4274 0.52362 12.382 0.407434 13.2877 0.627026C14.1934 0.846618 14.9887 1.3871 15.5264 2.14829L17.0004 1.93729C17.0822 1.92555 17.1656 1.93774 17.2407 1.97239C17.3157 2.00705 17.3791 2.06268 17.4232 2.13258C17.4673 2.20249 17.4902 2.28366 17.4892 2.3663C17.4881 2.44894 17.4632 2.52952 17.4174 2.59829L16.2314 4.36929Z" fill="white"/>
</svg>
